<?xml version="1.0" standalone="no"?><!DOCTYPE svg PUBLIC "-//W3C//DTD SVG 1.1//EN" "http://www.w3.org/Graphics/SVG/1.1/DTD/svg11.dtd"><svg t="1498012578405" class="icon" style="" viewBox="0 0 1024 1024" version="1.1" xmlns="http://www.w3.org/2000/svg" p-id="6798" xmlns:xlink="http://www.w3.org/1999/xlink" width="200" height="200"><defs><style type="text/css"></style></defs><path d="M819.05152 584.15616l124.15488-284.51328c6.08256-13.98272 4.9408-29.62432-3.07712-41.82528-7.78752-11.89376-20.6336-18.71872-35.23584-18.71872H319.61088l-9.45152-42.20928c-7.22944-32.57344-39.50592-58.09664-73.47712-58.09664H86.90688a29.84448 29.84448 0 0 0-29.80864 29.80864 29.83936 29.83936 0 0 0 29.80864 29.80864h149.77536c6.31808 0 14.02368 5.76 15.27808 11.44832l113.80736 507.25888c-36.74624 14.592-61.57312 51.54816-61.57312 91.71968 0 53.7856 43.75552 97.54112 97.536 97.54112 53.7856 0 97.54624-43.75552 97.54624-97.54112 0-12.41088-2.3552-24.59648-6.89664-35.97824h201.68192a96.88576 96.88576 0 0 0-6.90176 35.97824c0 53.7856 43.75552 97.54112 97.536 97.54112 53.79072 0 97.54624-43.75552 97.54624-97.54112 0-53.78048-43.75552-97.536-97.54624-97.536H425.74848l-21.34528-93.45536h361.82016c22.48704 0.00512 44.21632-13.85984 52.82816-33.6896z m-29.66528 187.12064c18.83136 2.31424 33.23904 18.37568 33.23904 37.56544 0 20.91008-17.00864 37.91872-37.92896 37.91872-20.91008 0-37.91872-17.00864-37.91872-37.91872a38.0672 38.0672 0 0 1 26.0096-35.97824c0-0.00512 8.1664-2.8416 16.59904-1.5872zM332.9536 298.71616h545.6128l-113.2544 259.52256h-374.272L332.9536 298.71616z m68.77184 548.0448c-20.90496 0-37.91872-17.00864-37.91872-37.91872 0-18.9952 14.23872-35.02592 32.8448-37.5296 7.84384-0.51712 16.98816 1.55136 16.98816 1.55136a38.07744 38.07744 0 0 1 26.01472 35.97824c0.00512 20.91008-17.00864 37.91872-37.92896 37.91872z" p-id="6799"></path></svg>