<?xml version="1.0" standalone="no"?><!DOCTYPE svg PUBLIC "-//W3C//DTD SVG 1.1//EN" "http://www.w3.org/Graphics/SVG/1.1/DTD/svg11.dtd"><svg t="1498012755497" class="icon" style="" viewBox="0 0 1024 1024" version="1.1" xmlns="http://www.w3.org/2000/svg" p-id="15898" xmlns:xlink="http://www.w3.org/1999/xlink" width="200" height="200"><defs><style type="text/css"></style></defs><path d="M759.759827 455.66904c-43.948955-43.948955-101.246939-69.684082-162.748664-73.459059-4.00829-11.103896-7.612375-23.170722-10.674107-36.622082-4.454452-19.573801-7.753591-42.089607-9.460466-68.855204-0.416486-6.53074-0.737804-13.31526-0.957815-20.37198-0.212848-6.843872-0.330528-13.94664-0.346901-21.320585-0.024559-0.00307-0.049119-0.00614-0.073678-0.010233 0.020466-0.187265 0.050142-0.37146 0.071631-0.558725 4.859681-42.591027 41.696658-75.613118 85.847204-74.349335 31.110555 0.890276 58.259892 18.99154 71.986521 45.161572l41.49916-7.973602c-16.331967-40.666188-53.53631-70.798463-98.367355-76.94751-72.049966-9.882068-134.524856 42.155099-141.757584 110.434182-0.060375 0.571005-0.098237 2.041496-0.119727 2.615571l-0.001023 5.501294c0.01535 4.863774 0.132006 12.43624 0.443092 21.151739 0.151449 4.245697 0.344854 8.429996 0.571005 12.5662 2.287089 41.86448 8.384971 78.209246 18.469654 110.287849 0.023536 0.073678 0.047072 0.146333 0.070608 0.220011-22.881127 2.416026-45.087894 7.90197-66.143443 16.242939l-0.01535 0.002047-0.027629 0.014326c-31.608905 12.528338-60.619636 31.503505-85.385693 56.270585l7.858992-7.03216c-33.520441 32.711006-54.371328 78.350462-54.371328 128.774899 0 24.523533 4.936429 47.913243 13.856589 69.238944 21.278629 50.870598 65.263399 89.961918 119.215172 104.547101 14.190187 4.428869 29.271674 6.816243 44.901653 6.816243 8.330736 0 16.502859-0.689708 24.471344-1.9934 71.663156-11.729136 126.526695-74.076112 126.526695-149.005662 0-17.116843-2.868327-33.5757-8.140401-48.926316-10.828626-44.819788-28.257577-75.357292-45.25367-105.10685-5.182023-9.071609-10.311857-18.055215-15.243169-27.38879 8.403391 1.416256 16.639982 3.327792 24.679076 5.705955 87.569428 25.910113 151.650909 107.071597 151.650909 202.930829 0 49.340755-16.97972 94.789876-45.397956 130.816394-20.174482 22.572088-43.75248 42.034349-69.923536 57.579393-44.12701 26.209942-95.605452 41.289382-150.546761 41.289382-22.579251 0-44.572148-2.554172-65.714677-7.369851C329.673441 826.580698 231.209896 708.678428 231.209896 568.202023c0-146.335856 106.85261-268.164552 246.629073-291.614637l-5.392824-40.645722c-69.059865 11.172457-132.731 43.522236-183.228091 93.879134-63.059198 62.885236-98.734722 148.529825-98.939383 237.586117-0.207731 90.50427 35.052331 175.60753 99.209536 239.447511 63.883983 63.567781 150.943804 98.91994 241.061264 97.973382 60.084447-0.630357 117.6577-16.918321 168.063717-46.909379 22.252817-11.714809 42.859134-26.839275 61.147662-45.127803 6.618744-6.618744 12.808724-13.550621 18.588357-20.74344 35.874045-44.64071 55.373145-99.727329 55.373145-157.818375 0-25.755594-3.841491-50.91767-11.231809-74.845639C810.526047 520.646937 789.243325 485.152539 759.759827 455.66904zM422.406472 437.980169c0.636496-0.520863 1.283226-1.029446 1.926886-1.542122-0.687662 0.546446-1.372254 1.096984-2.051729 1.65264L422.406472 437.980169zM637.59651 569.554834c2.740414 11.648294 4.970198 24.378224 6.554276 38.532595-0.51677 53.819766-39.85266 98.519828-91.297332 107.388822-5.484921 0.660032-11.063987 1.00898-16.72287 1.00898-12.177344 0-23.991414-1.578961-35.254945-4.532223-59.667961-15.647375-103.817484-70.03303-103.817484-134.541229 0-18.450211 3.620457-36.06745 10.172687-52.191686 8.318456-20.469194 21.369703-38.528502 37.797861-52.8026 2.894933-2.440585 5.852288-4.808516 8.877181-7.093559 32.541137-24.584931 72.376401-39.997969 115.632577-42.358737 3.6399 7.970532 7.413853 15.493879 11.251252 22.729677 4.088108 7.708566 8.247848 15.095813 12.389168 22.366404 0.995677 1.747807 1.990331 3.489474 2.982938 5.227048C612.488669 501.864152 628.109438 529.2335 637.59651 569.554834z" p-id="15899"></path></svg>