<?xml version="1.0" standalone="no"?><!DOCTYPE svg PUBLIC "-//W3C//DTD SVG 1.1//EN" "http://www.w3.org/Graphics/SVG/1.1/DTD/svg11.dtd"><svg t="1498012911022" class="icon" style="" viewBox="0 0 1024 1024" version="1.1" xmlns="http://www.w3.org/2000/svg" p-id="25243" xmlns:xlink="http://www.w3.org/1999/xlink" width="200" height="200"><defs><style type="text/css"></style></defs><path d="M461 579c-112.1 0-203.4-91.2-203.4-203.4S348.8 172.3 461 172.3s203.4 91.2 203.4 203.4S573.1 579 461 579z m0-376.2c-95.3 0-172.9 77.6-172.9 172.9 0 95.3 77.6 172.9 172.9 172.9S633.9 471 633.9 375.7c0-95.4-77.6-172.9-172.9-172.9z" fill="" p-id="25244"></path><path d="M778.3 857.5c-7.6 0-14.2-5.7-15.1-13.4-17.9-151-148-264.9-302.5-264.9-152 0-281.9 113.4-302 263.9-1.1 8.3-8.8 14.2-17.1 13.1-8.3-1.1-14.2-8.8-13.1-17.1 22.1-165.5 164.9-290.3 332.1-290.3 169.9 0 313 125.4 332.8 291.8 1 8.4-5 15.9-13.3 16.9h-1.8z" fill="" p-id="25245"></path><path d="M626.2 571.9c-7.7 0-14-6.1-14-13.5 0-7.5 6.2-13.5 14-13.5 87.4 0 158.5-68.9 158.5-153.7 0-84.7-71.1-153.7-158.5-153.7-7.7 0-14-6.1-14-13.5 0-7.5 6.2-13.5 14-13.5 102.8 0 186.4 81.1 186.4 180.8S729 571.9 626.2 571.9z" fill="" p-id="25246"></path><path d="M917 819.4c-7 0-13-5.1-13.8-11.9C886.7 673.2 767.5 572 625.9 572c-7.7 0-14-6.1-14-13.5 0-7.5 6.2-13.5 14-13.5 155.7 0 286.9 111.5 305 259.4 0.9 7.4-4.6 14.2-12.2 15H917z" fill="" p-id="25247"></path></svg>