<?xml version="1.0" standalone="no"?><!DOCTYPE svg PUBLIC "-//W3C//DTD SVG 1.1//EN" "http://www.w3.org/Graphics/SVG/1.1/DTD/svg11.dtd"><svg t="1498012976910" class="icon" style="" viewBox="0 0 1024 1024" version="1.1" xmlns="http://www.w3.org/2000/svg" p-id="26972" xmlns:xlink="http://www.w3.org/1999/xlink" width="200" height="200"><defs><style type="text/css"></style></defs><path d="M938.323177 126.924761c0-48.635697-13.250792-69.070098-60.945047-61.392232L410.13038 167.119205c-38.189787 6.228865-60.945047 21.940708-60.945048 60.945047v446.934099c-27.913746-24.362874-63.920822-40.630373-101.57542-40.630372-84.137259 0-162.52149 76.221985-162.52149 162.52149 0 86.259596 78.384231 162.520467 162.52149 162.520467 84.137259 0 162.520467-76.260871 162.520468-162.520467V451.53079l467.248773-101.576443v264.09691c-27.952632-23.607674-64.952314-40.629349-101.57542-40.629349-86.756923 0-162.52149 75.149561-162.52149 162.520467s75.764568 162.52149 162.52149 162.52149c86.754876 0 162.519444-75.150584 162.519444-162.52149V126.924761zM247.608889 898.464889c-56.005548 0-101.576443-45.591361-101.576443-101.576443 0-56.026014 45.569872-101.576443 101.576443-101.576444 56.005548 0 101.57542 45.550429 101.57542 101.576444 0 55.985082-45.569872 101.576443-101.57542 101.576443z m162.521491-670.40166l467.248773-101.57542v162.520467l-467.248773 101.576444v-162.521491z m365.673353 609.456613c-56.005548 0-101.577466-45.590338-101.577466-101.576444 0-56.024991 45.570895-101.576443 101.577466-101.576443s101.57542 45.551452 101.57542 101.576443c-0.001023 55.986105-45.569872 101.576443-101.57542 101.576444z" p-id="26973"></path></svg>