<?xml version="1.0" standalone="no"?><!DOCTYPE svg PUBLIC "-//W3C//DTD SVG 1.1//EN" "http://www.w3.org/Graphics/SVG/1.1/DTD/svg11.dtd"><svg t="1498013056546" class="icon" style="" viewBox="0 0 1024 1024" version="1.1" xmlns="http://www.w3.org/2000/svg" p-id="29914" xmlns:xlink="http://www.w3.org/1999/xlink" width="200" height="200"><defs><style type="text/css"></style></defs><path d="M956.646498 949.538101c-12.278651 12.300141-32.188096 12.300141-44.466748 0L722.122113 759.153006c-70.532403 63.808258-163.689083 102.996792-266.207991 102.996792-219.682351 0-397.770376-178.397063-397.770376-398.459061 0-220.059951 178.089048-398.453944 397.770376-398.453944 219.680305 0 397.767306 178.393993 397.767306 398.453944 0 94.66708-33.102932 181.50075-88.145549 249.862721l191.110619 191.438077C968.926172 917.294746 968.926172 937.237961 956.646498 949.538101zM455.914122 117.208469c-191.026708 0-345.886705 155.125033-345.886705 346.483292 0 191.357236 154.859997 346.485339 345.886705 346.485339 191.029778 0 345.888751-155.129126 345.888751-346.485339C801.802874 272.334525 646.9439 117.208469 455.914122 117.208469z" p-id="29915"></path></svg>