<?xml version="1.0" standalone="no"?><!DOCTYPE svg PUBLIC "-//W3C//DTD SVG 1.1//EN" "http://www.w3.org/Graphics/SVG/1.1/DTD/svg11.dtd"><svg t="1498012726065" class="icon" style="" viewBox="0 0 1024 1024" version="1.1" xmlns="http://www.w3.org/2000/svg" p-id="14003" xmlns:xlink="http://www.w3.org/1999/xlink" width="200" height="200"><defs><style type="text/css"></style></defs><path d="M891.842051 253.936503c0 13.472849-9.195429 24.39562-20.538779 24.39562L154.034189 278.332123c-11.343349 0-20.538779-10.921747-20.538779-24.39562l0 0c0-13.472849 9.195429-24.39562 20.538779-24.39562l717.269084 0C882.646622 229.540883 891.842051 240.46263 891.842051 253.936503L891.842051 253.936503z" p-id="14004"></path><path d="M891.842051 502.485299c0 13.472849-9.195429 24.39562-20.538779 24.39562L154.034189 526.880919c-11.343349 0-20.538779-10.921747-20.538779-24.39562l0 0c0-13.472849 9.195429-24.39562 20.538779-24.39562l717.269084 0C882.646622 478.089679 891.842051 489.011426 891.842051 502.485299L891.842051 502.485299z" p-id="14005"></path><path d="M891.842051 762.712065c0 13.472849-9.195429 24.39562-20.538779 24.39562L154.034189 787.107685c-11.343349 0-20.538779-10.921747-20.538779-24.39562l0 0c0-13.472849 9.195429-24.39562 20.538779-24.39562l717.269084 0C882.646622 738.316445 891.842051 749.239216 891.842051 762.712065L891.842051 762.712065z" p-id="14006"></path></svg>