<?xml version="1.0" standalone="no"?><!DOCTYPE svg PUBLIC "-//W3C//DTD SVG 1.1//EN" "http://www.w3.org/Graphics/SVG/1.1/DTD/svg11.dtd"><svg t="1498012398692" class="icon" style="" viewBox="0 0 1024 1024" version="1.1" xmlns="http://www.w3.org/2000/svg" p-id="1113" xmlns:xlink="http://www.w3.org/1999/xlink" width="200" height="200"><defs><style type="text/css"></style></defs><path d="M513.2 168.8c122 0 244-0.1 366 0.1 34.3 0 59.7 15.5 74.9 46.6 5.6 11.5 7.1 23.8 7.1 36.5-0.1 156.4 0 312.7 0 469.1 0 18.7 0.3 37.4-0.2 56.1-1.1 42.2-34.9 75.5-77 76.5H148c-27.9 0-50.6-10.4-67.3-32.9-10.7-14.4-15.1-30.9-15-48.8 0.1-71.9 0-143.9 0-215.8 0-102-0.1-203.9 0.1-305.9 0.1-34.2 15.7-59.2 46.6-74.3 11.4-5.6 23.8-7.2 36.5-7.2h364.3zM118.5 447.5v324.9c0 2.8 0.1 5.7 0.8 8.4 3.3 13.1 13.4 20.1 29 20.1h730.5c3.5 0 7 0 10.4-1 12.6-3.6 19.5-13.6 19.5-28.6V449.9 446c-2.2 1.1-3.8 1.8-5.4 2.6-55.1 28.3-110 56.8-165.2 85-51.1 26.2-102.3 52.1-154.6 76-9.5 4.4-19.2 7-29.9 6.4-11.5-0.6-23-0.3-34.5-0.1-3.8 0.1-7.2-0.7-10.6-2.2-110.2-48.2-220.5-96.3-330.8-144.4-19.5-8.5-39-17-59.2-25.8v4z m29.2-225.9c-18.7 0-29.3 10.4-29.3 29 0 45.1 0 90.1-0.1 135.2 0 3.5 1 5.1 4.4 6.5C260.5 448.7 398.3 505.4 536 562c2.7 1.1 4.9 1.1 7.5-0.2 120.2-56 240.5-112 360.8-167.9 3.4-1.6 4.5-3.4 4.4-7.1-0.2-45.1-0.1-90.1-0.1-135.2 0-3.7-0.2-7.4-1.2-10.9-3.4-12.3-13.6-19.2-28.2-19.2h-366c-121.8 0.1-243.6 0.1-365.5 0.1z" fill="" p-id="1114"></path></svg>