<?xml version="1.0" standalone="no"?><!DOCTYPE svg PUBLIC "-//W3C//DTD SVG 1.1//EN" "http://www.w3.org/Graphics/SVG/1.1/DTD/svg11.dtd"><svg t="1498012352907" class="icon" style="" viewBox="0 0 1024 1024" version="1.1" xmlns="http://www.w3.org/2000/svg" p-id="7184" xmlns:xlink="http://www.w3.org/1999/xlink" width="200" height="200"><defs><style type="text/css"></style></defs><path d="M512.36225 920.550906c-11.813047 0-23.299659-4.169973-40.958854-24.522509l-160.270216-184.354752C211.523531 597.150332 125.498272 498.245741 85.317131 451.480648l-0.919952-1.070378-0.76441-1.188059c-22.804379-35.421744-22.598694-71.154573 0.559748-98.065479 20.638039-24.551162 63.714114-74.294077 105.37291-122.399701 35.671431-41.180911 66.874083-77.231989 87.473237-101.370759 17.699104-20.714787 30.496571-23.568788 41.690518-23.568788 1.574868-0.00307 163.375951-0.369414 276.846282-0.369414 64.304562 0 103.373369 0.125867 110.009509 0.353041 18.575054 0.729617 27.060309 9.003048 41.673122 24.793686C783.249821 167.393451 864.349907 262.220167 907.919215 313.165466c15.487739 18.10024 27.702945 32.367175 32.317033 37.644365l0.342807 0.402159c24.512277 29.535687 19.941168 74.771961 0.294713 98.490152l-0.235361 0.278339C894.990764 503.126912 808.874431 602.124624 717.701942 706.933691L553.323151 896.042723c-17.724687 20.407796-28.814256 24.508183-40.960901 24.508183z m-395.035078-494.625284c40.502459 47.120181 125.914758 145.32176 224.690412 258.885212l160.290683 184.377264c5.201465 5.994528 8.439206 8.763594 10.087752 9.977236 1.639337-1.224898 4.846378-4.002151 10.030448-9.970072l164.389024-189.120289C777.85495 575.418378 863.84644 476.56393 909.447011 423.474804c7.483438-9.18622 11.162224-32.007995-0.222058-45.950541-4.886287-5.596462-17.051351-19.804045-32.408107-37.752836-43.385113-50.728358-124.136252-145.146774-159.583578-183.359075-2.329045-2.51631-9.182127-9.921977-11.750625-11.615548a20.408819 20.408819 0 0 0-1.400906-0.093121c-2.14792-0.073678-16.628726-0.325411-108.504227-0.325411-113.424282 0-275.178293 0.36532-276.79921 0.369413-0.251733 0-0.536212 0-0.759293 0.00307-0.852414 0.448208-4.041036 2.415003-9.849322 9.213849-20.682042 24.235984-51.936883 60.347436-87.660502 101.588723-41.617863 48.058552-84.655052 97.756441-105.064894 122.039497l-0.177032 0.207731c-10.790764 12.494569-10.093892 28.681226 2.059915 48.125067z" p-id="7185"></path><path d="M689.083138 378.717438l-177.286776 227.051179-177.057555-227.668233c-1.809205-2.845815-2.355651-2.845815-4.920056-2.845815h-86.383416v39.919175h2.073218c16.330944 0 22.384823 4.247744 29.085432 13.189394 0.656963 0.89744 1.430582 1.920746 2.971681 3.827165 38.936801 52.939723 191.544501 238.401692 234.617506 296.163233 43.057655-57.802474 195.568141-243.392356 235.023758-296.893874 0.954745-1.1328 1.698688-2.142803 2.355651-3.025916 6.742565-8.983605 12.811794-13.260002 29.070082-13.260002h1.961678V375.188054H694.52201c-2.426259-0.001023-3.15383-0.001023-5.438872 3.529384z" p-id="7186"></path></svg>